<?xml version="1.0" encoding="UTF-8"?>
<!DOCTYPE svg PUBLIC "-//W3C//DTD SVG 1.1//EN" "http://www.w3.org/Graphics/SVG/1.1/DTD/svg11.dtd">
<!-- Creator: CorelDRAW -->
<svg xmlns="http://www.w3.org/2000/svg" xml:space="preserve" width="179.002mm" height="53.7966mm" version="1.1" style="shape-rendering:geometricPrecision; text-rendering:geometricPrecision; image-rendering:optimizeQuality; fill-rule:evenodd; clip-rule:evenodd"
viewBox="0 0 17847.75 5363.89"
 xmlns:xlink="http://www.w3.org/1999/xlink"
 xmlns:xodm="http://www.corel.com/coreldraw/odm/2003">
 <defs>
  <style type="text/css">
   <![CDATA[
    .fil0 {fill:#2B2A29;fill-rule:nonzero}
    .fil2 {fill:url(#id0);fill-rule:nonzero}
    .fil1 {fill:url(#id1);fill-rule:nonzero}
   ]]>
  </style>
  <linearGradient id="id0" gradientUnits="objectBoundingBox" x1="99.9999%" y1="50.0002%" x2="0%" y2="50.0002%">
   <stop offset="0" style="stop-opacity:1; stop-color:#23233A"/>
   <stop offset="0.278431" style="stop-opacity:1; stop-color:#2A3366"/>
   <stop offset="1" style="stop-opacity:1; stop-color:#314493"/>
  </linearGradient>
  <linearGradient id="id1" gradientUnits="objectBoundingBox" x1="0%" y1="49.9999%" x2="99.9998%" y2="49.9999%">
   <stop offset="0" style="stop-opacity:1; stop-color:#6C231C"/>
   <stop offset="0.34902" style="stop-opacity:1; stop-color:#A22121"/>
   <stop offset="1" style="stop-opacity:1; stop-color:#D91F26"/>
  </linearGradient>
 </defs>
 <g id="Layer_x0020_1">
  <metadata id="CorelCorpID_0Corel-Layer"/>
  <g id="_1612303482416">
   <path class="fil0" d="M16879.52 0c-225.89,1.25 -406.17,166.45 -406.17,166.45l-4677.72 4375.03 968.79 0c242.23,0 408.87,-166.52 408.87,-166.52l1183.66 -1067.84c395.49,-399.56 2500.5,-2374.87 3490.8,-3304.09l0 -3.03 -968.23 0z"/>
   <path class="fil1" d="M13807.5 2512.95l-514.77 -514.69c0,0 -181.64,-181.67 -438.88,-181.67l-953.78 0 1271.61 1271.61 635.81 -575.26z"/>
   <path class="fil0" d="M108.43 4545.01l0 -523.48 1118 0c72.3,0 134.61,-26.8 186.96,-80.39 52.35,-53.59 78.53,-115.29 78.53,-185.09 0,-74.78 -26.18,-138.35 -78.53,-190.7 -52.35,-52.35 -114.66,-78.52 -186.96,-78.52l-403.82 0c-152.06,0 -290.41,-30.54 -415.05,-91.61 -124.63,-61.07 -223.72,-148.94 -297.27,-263.61 -73.53,-114.66 -110.3,-253.02 -110.3,-415.04 0,-157.05 35.52,-294.77 106.56,-413.17 71.05,-118.41 165.77,-210.64 284.18,-276.71 118.4,-66.06 249.9,-99.09 394.48,-99.09l1155.39 0 0 523.49 -1084.35 0c-69.79,0 -127.14,24.3 -172,72.91 -44.87,48.62 -67.3,106.57 -67.3,173.88 0,67.3 22.43,124.63 67.3,171.99 44.87,47.36 102.21,71.05 172,71.05l422.53 0c164.52,0 309.1,31.78 433.73,95.34 124.64,63.57 221.24,152.06 289.79,265.49 68.55,113.42 102.83,246.16 102.83,398.22 0,179.47 -35.53,332.15 -106.57,458.04 -71.04,125.88 -166.39,221.86 -286.05,287.91 -119.65,66.06 -251.77,99.09 -396.34,99.09l-1207.75 0z"/>
   <path id="_1" class="fil0" d="M2224.79 4545.01l848.78 -2314.53c42.39,-114.67 112.18,-201.3 209.39,-259.88 97.22,-58.58 206.9,-87.87 329.05,-87.87 122.14,0 231.82,28.05 329.04,84.13 97.21,56.09 167.02,142.71 209.39,259.88l852.52 2318.27 -676.79 0 -164.52 -504.79 -1110.53 0 -171.99 504.79 -654.36 0zm987.14 -1024.53l788.96 0 -332.78 -1043.22c-9.97,-27.42 -27.42,-41.13 -52.35,-41.13 -24.94,0 -41.14,13.71 -48.62,41.13l-355.22 1043.22z"/>
   <path id="_2" class="fil0" d="M6027.5 4589.88c-122.14,0 -231.83,-28.04 -329.04,-84.13 -97.21,-56.09 -167.02,-143.96 -209.39,-263.6l-796.44 -2314.54 676.79 0 605.74 2026.63c9.97,29.91 27.42,44.87 52.35,44.87 22.43,0 39.89,-14.96 52.36,-44.87l616.96 -2026.63 661.83 0 -792.7 2314.54c-42.39,117.16 -112.8,204.41 -211.27,261.74 -98.46,57.33 -207.52,86 -327.18,86z"/>
   <path id="_3" class="fil0" d="M8024.22 5363.89c-229.34,0 -402.59,-62.32 -519.74,-186.95 -117.17,-124.64 -175.74,-282.94 -175.74,-474.87 0,-127.14 25.54,-261.74 76.65,-403.83 51.1,-142.09 133.99,-283.56 248.65,-424.39 114.67,-140.85 270.46,-271.09 467.4,-390.74l0 -1032.01 -519.74 0 0 -523.49 1114.26 0 0 2647.32c0,236.81 -57.33,427.51 -171.99,572.09 -114.67,144.58 -287.91,216.87 -519.74,216.87zm-33.65 -538.44c44.87,0 80.38,-18.7 106.56,-56.09 26.18,-37.39 39.26,-88.49 39.26,-153.31l0 -572.09c-97.21,79.77 -166.39,157.67 -207.52,233.69 -41.13,76.04 -66.06,143.97 -74.79,203.79 -8.72,59.82 -13.08,107.18 -13.08,142.08 0,64.82 14.96,114.67 44.87,149.57 29.91,34.9 64.81,52.35 104.7,52.35z"/>
   <path id="_4" class="fil0" d="M8944.05 4545.01l848.78 -2314.53c42.39,-114.67 112.18,-201.3 209.39,-259.88 97.22,-58.58 206.9,-87.87 329.05,-87.87 122.14,0 231.82,28.05 329.04,84.13 97.21,56.09 167.02,142.71 209.39,259.88l852.52 2318.27 -676.79 0 -164.52 -504.79 -1110.53 0 -171.99 504.79 -654.36 0zm987.14 -1024.53l788.96 0 -332.78 -1043.22c-9.97,-27.42 -27.42,-41.13 -52.35,-41.13 -24.94,0 -41.14,13.71 -48.62,41.13l-355.22 1043.22z"/>
   <path class="fil2" d="M13918.06 3846.21l514.77 514.69c0,0 181.64,181.67 438.87,181.67l953.79 0 -1271.61 -1271.61 -635.81 575.26z"/>
   <path class="fil0" d="M16879.52 0c-225.89,1.25 -406.17,166.45 -406.17,166.45l-4677.72 4375.03 968.79 0c242.23,0 408.87,-166.52 408.87,-166.52l1183.66 -1067.84c395.49,-399.56 2500.5,-2374.87 3490.8,-3304.09l0 -3.03 -968.23 0z"/>
   <path class="fil1" d="M13807.5 2512.95l-514.77 -514.69c0,0 -181.64,-181.67 -438.88,-181.67l-953.78 0 1271.61 1271.61 635.81 -575.26z"/>
   <path class="fil0" d="M108.43 4545.01l0 -523.48 1118 0c72.3,0 134.61,-26.8 186.96,-80.39 52.35,-53.59 78.53,-115.29 78.53,-185.09 0,-74.78 -26.18,-138.35 -78.53,-190.7 -52.35,-52.35 -114.66,-78.52 -186.96,-78.52l-403.82 0c-152.06,0 -290.41,-30.54 -415.05,-91.61 -124.63,-61.07 -223.72,-148.94 -297.27,-263.61 -73.53,-114.66 -110.3,-253.02 -110.3,-415.04 0,-157.05 35.52,-294.77 106.56,-413.17 71.05,-118.41 165.77,-210.64 284.18,-276.71 118.4,-66.06 249.9,-99.09 394.48,-99.09l1155.39 0 0 523.49 -1084.35 0c-69.79,0 -127.14,24.3 -172,72.91 -44.87,48.62 -67.3,106.57 -67.3,173.88 0,67.3 22.43,124.63 67.3,171.99 44.87,47.36 102.21,71.05 172,71.05l422.53 0c164.52,0 309.1,31.78 433.73,95.34 124.64,63.57 221.24,152.06 289.79,265.49 68.55,113.42 102.83,246.16 102.83,398.22 0,179.47 -35.53,332.15 -106.57,458.04 -71.04,125.88 -166.39,221.86 -286.05,287.91 -119.65,66.06 -251.77,99.09 -396.34,99.09l-1207.75 0z"/>
   <path id="_1_0" class="fil0" d="M2224.79 4545.01l848.78 -2314.53c42.39,-114.67 112.18,-201.3 209.39,-259.88 97.22,-58.58 206.9,-87.87 329.05,-87.87 122.14,0 231.82,28.05 329.04,84.13 97.21,56.09 167.02,142.71 209.39,259.88l852.52 2318.27 -676.79 0 -164.52 -504.79 -1110.53 0 -171.99 504.79 -654.36 0zm987.14 -1024.53l788.96 0 -332.78 -1043.22c-9.97,-27.42 -27.42,-41.13 -52.35,-41.13 -24.94,0 -41.14,13.71 -48.62,41.13l-355.22 1043.22z"/>
   <path id="_2_1" class="fil0" d="M6027.5 4589.88c-122.14,0 -231.83,-28.04 -329.04,-84.13 -97.21,-56.09 -167.02,-143.96 -209.39,-263.6l-796.44 -2314.54 676.79 0 605.74 2026.63c9.97,29.91 27.42,44.87 52.35,44.87 22.43,0 39.89,-14.96 52.36,-44.87l616.96 -2026.63 661.83 0 -792.7 2314.54c-42.39,117.16 -112.8,204.41 -211.27,261.74 -98.46,57.33 -207.52,86 -327.18,86z"/>
   <path id="_3_2" class="fil0" d="M8024.22 5363.89c-229.34,0 -402.59,-62.32 -519.74,-186.95 -117.17,-124.64 -175.74,-282.94 -175.74,-474.87 0,-127.14 25.54,-261.74 76.65,-403.83 51.1,-142.09 133.99,-283.56 248.65,-424.39 114.67,-140.85 270.46,-271.09 467.4,-390.74l0 -1032.01 -519.74 0 0 -523.49 1114.26 0 0 2647.32c0,236.81 -57.33,427.51 -171.99,572.09 -114.67,144.58 -287.91,216.87 -519.74,216.87zm-33.65 -538.44c44.87,0 80.38,-18.7 106.56,-56.09 26.18,-37.39 39.26,-88.49 39.26,-153.31l0 -572.09c-97.21,79.77 -166.39,157.67 -207.52,233.69 -41.13,76.04 -66.06,143.97 -74.79,203.79 -8.72,59.82 -13.08,107.18 -13.08,142.08 0,64.82 14.96,114.67 44.87,149.57 29.91,34.9 64.81,52.35 104.7,52.35z"/>
   <path id="_4_3" class="fil0" d="M8944.05 4545.01l848.78 -2314.53c42.39,-114.67 112.18,-201.3 209.39,-259.88 97.22,-58.58 206.9,-87.87 329.05,-87.87 122.14,0 231.82,28.05 329.04,84.13 97.21,56.09 167.02,142.71 209.39,259.88l852.52 2318.27 -676.79 0 -164.52 -504.79 -1110.53 0 -171.99 504.79 -654.36 0zm987.14 -1024.53l788.96 0 -332.78 -1043.22c-9.97,-27.42 -27.42,-41.13 -52.35,-41.13 -24.94,0 -41.14,13.71 -48.62,41.13l-355.22 1043.22z"/>
   <path class="fil2" d="M13918.06 3846.21l514.77 514.69c0,0 181.64,181.67 438.87,181.67l953.79 0 -1271.61 -1271.61 -635.81 575.26z"/>
  </g>
 </g>
</svg>
