<?xml version="1.0" encoding="UTF-8"?>
<!DOCTYPE svg PUBLIC "-//W3C//DTD SVG 1.1//EN" "http://www.w3.org/Graphics/SVG/1.1/DTD/svg11.dtd">
<!-- Creator: CorelDRAW -->
<svg xmlns="http://www.w3.org/2000/svg" xml:space="preserve" width="179.002mm" height="53.7966mm" version="1.1" style="shape-rendering:geometricPrecision; text-rendering:geometricPrecision; image-rendering:optimizeQuality; fill-rule:evenodd; clip-rule:evenodd"
viewBox="0 0 17724.25 5326.77"
 xmlns:xlink="http://www.w3.org/1999/xlink"
 xmlns:xodm="http://www.corel.com/coreldraw/odm/2003">
 <defs>
  <style type="text/css">
   <![CDATA[
    .fil3 {fill:#FEFEFE;fill-rule:nonzero}
    .fil0 {fill:#2B2A29;fill-rule:nonzero}
    .fil2 {fill:url(#id0);fill-rule:nonzero}
    .fil1 {fill:url(#id1);fill-rule:nonzero}
   ]]>
  </style>
  <linearGradient id="id0" gradientUnits="objectBoundingBox" x1="99.9999%" y1="50.0002%" x2="0%" y2="50.0002%">
   <stop offset="0" style="stop-opacity:1; stop-color:#23233A"/>
   <stop offset="0.278431" style="stop-opacity:1; stop-color:#2A3366"/>
   <stop offset="1" style="stop-opacity:1; stop-color:#314493"/>
  </linearGradient>
  <linearGradient id="id1" gradientUnits="objectBoundingBox" x1="0%" y1="49.9999%" x2="99.9998%" y2="49.9999%">
   <stop offset="0" style="stop-opacity:1; stop-color:#6C231C"/>
   <stop offset="0.34902" style="stop-opacity:1; stop-color:#A22121"/>
   <stop offset="1" style="stop-opacity:1; stop-color:#D91F26"/>
  </linearGradient>
 </defs>
 <g id="Layer_x0020_1">
  <metadata id="CorelCorpID_0Corel-Layer"/>
  <path class="fil0" d="M16762.72 0c-224.32,1.24 -403.35,165.3 -403.35,165.3l-4645.35 4344.76 962.09 0c240.55,0 406.04,-165.37 406.04,-165.37l1175.47 -1060.45c392.75,-396.8 2483.19,-2358.43 3466.65,-3281.23l0 -3.01 -961.53 0z"/>
  <path class="fil1" d="M13711.95 2495.56l-511.2 -511.12c0,0 -180.38,-180.41 -435.84,-180.41l-947.18 0 1262.81 1262.81 631.41 -571.28z"/>
  <path class="fil0" d="M107.68 4513.56l0 -519.86 1110.27 0c71.8,0 133.68,-26.62 185.67,-79.84 51.98,-53.22 77.99,-114.49 77.99,-183.8 0,-74.26 -26,-137.4 -77.99,-189.38 -51.98,-51.98 -113.87,-77.98 -185.67,-77.98l-401.03 0c-151.01,0 -288.4,-30.33 -412.18,-90.98 -123.77,-60.65 -222.17,-147.91 -295.21,-261.79 -73.02,-113.87 -109.53,-251.27 -109.53,-412.17 0,-155.96 35.27,-292.73 105.82,-410.32 70.56,-117.59 164.63,-209.18 282.22,-274.79 117.58,-65.6 248.17,-98.4 391.75,-98.4l1147.4 0 0 519.87 -1076.85 0c-69.31,0 -126.26,24.13 -170.81,72.4 -44.56,48.28 -66.84,105.83 -66.84,172.68 0,66.84 22.28,123.77 66.84,170.8 44.56,47.03 101.5,70.56 170.81,70.56l419.6 0c163.38,0 306.96,31.56 430.73,94.68 123.78,63.13 219.71,151.01 287.78,263.65 68.07,112.63 102.12,244.45 102.12,395.46 0,178.23 -35.28,329.85 -105.83,454.87 -70.55,125.01 -165.24,220.32 -284.07,285.92 -118.82,65.6 -250.03,98.4 -393.6,98.4l-1199.39 0z"/>
  <path id="_1" class="fil0" d="M2209.39 4513.56l842.91 -2298.52c42.09,-113.88 111.4,-199.91 207.95,-258.08 96.55,-58.17 205.47,-87.26 326.78,-87.26 121.3,0 230.21,27.85 326.77,83.55 96.54,55.7 165.86,141.72 207.95,258.08l846.62 2302.23 -672.11 0 -163.38 -501.29 -1102.85 0 -170.8 501.29 -649.83 0zm980.31 -1017.44l783.5 0 -330.48 -1036c-9.9,-27.23 -27.23,-40.84 -51.98,-40.84 -24.76,0 -40.85,13.61 -48.28,40.84l-352.76 1036z"/>
  <path id="_2" class="fil0" d="M5985.79 4558.12c-121.3,0 -230.22,-27.84 -326.77,-83.55 -96.54,-55.7 -165.86,-142.96 -207.95,-261.78l-790.93 -2298.53 672.11 0 601.55 2012.61c9.9,29.71 27.23,44.56 51.98,44.56 22.28,0 39.62,-14.85 51.99,-44.56l612.69 -2012.61 657.25 0 -787.21 2298.53c-42.09,116.34 -112.02,202.99 -209.81,259.93 -97.78,56.93 -206.08,85.4 -324.91,85.4z"/>
  <path id="_3" class="fil0" d="M7968.7 5326.77c-227.75,0 -399.8,-61.89 -516.14,-185.66 -116.35,-123.78 -174.53,-280.98 -174.53,-471.59 0,-126.26 25.37,-259.93 76.12,-401.04 50.75,-141.11 133.06,-281.59 246.93,-421.46 113.88,-139.87 268.59,-269.22 464.16,-388.04l0 -1024.86 -516.14 0 0 -519.87 1106.55 0 0 2629.01c0,235.17 -56.93,424.55 -170.8,568.13 -113.88,143.58 -285.92,215.37 -516.14,215.37zm-33.42 -534.71c44.56,0 79.83,-18.57 105.82,-55.7 26,-37.13 38.99,-87.88 38.99,-152.25l0 -568.13c-96.54,79.21 -165.24,156.58 -206.08,232.08 -40.84,75.51 -65.6,142.97 -74.27,202.38 -8.66,59.41 -12.99,106.44 -12.99,141.1 0,64.37 14.85,113.88 44.56,148.54 29.71,34.66 64.36,51.98 103.98,51.98z"/>
  <path id="_4" class="fil0" d="M8882.15 4513.56l842.91 -2298.52c42.09,-113.88 111.4,-199.91 207.95,-258.08 96.55,-58.17 205.47,-87.26 326.78,-87.26 121.3,0 230.21,27.85 326.77,83.55 96.54,55.7 165.86,141.72 207.95,258.08l846.62 2302.23 -672.11 0 -163.38 -501.29 -1102.85 0 -170.8 501.29 -649.83 0zm980.31 -1017.44l783.5 0 -330.48 -1036c-9.9,-27.23 -27.23,-40.84 -51.98,-40.84 -24.76,0 -40.85,13.61 -48.28,40.84l-352.76 1036z"/>
  <path class="fil2" d="M13821.75 3819.59l511.2 511.12c0,0 180.38,180.41 435.83,180.41l947.18 0 -1262.81 -1262.81 -631.41 571.28z"/>
  <path class="fil3" d="M16762.72 0c-224.32,1.24 -403.35,165.3 -403.35,165.3l-4645.35 4344.76 962.09 0c240.55,0 406.04,-165.37 406.04,-165.37l1175.47 -1060.45c392.75,-396.8 2483.19,-2358.43 3466.65,-3281.23l0 -3.01 -961.53 0z"/>
  <path class="fil1" d="M13711.95 2495.56l-511.2 -511.12c0,0 -180.38,-180.41 -435.84,-180.41l-947.18 0 1262.81 1262.81 631.41 -571.28z"/>
  <path class="fil3" d="M107.68 4513.56l0 -519.86 1110.27 0c71.8,0 133.68,-26.62 185.67,-79.84 51.98,-53.22 77.99,-114.49 77.99,-183.8 0,-74.26 -26,-137.4 -77.99,-189.38 -51.98,-51.98 -113.87,-77.98 -185.67,-77.98l-401.03 0c-151.01,0 -288.4,-30.33 -412.18,-90.98 -123.77,-60.65 -222.17,-147.91 -295.21,-261.79 -73.02,-113.87 -109.53,-251.27 -109.53,-412.17 0,-155.96 35.27,-292.73 105.82,-410.32 70.56,-117.59 164.63,-209.18 282.22,-274.79 117.58,-65.6 248.17,-98.4 391.75,-98.4l1147.4 0 0 519.87 -1076.85 0c-69.31,0 -126.26,24.13 -170.81,72.4 -44.56,48.28 -66.84,105.83 -66.84,172.68 0,66.84 22.28,123.77 66.84,170.8 44.56,47.03 101.5,70.56 170.81,70.56l419.6 0c163.38,0 306.96,31.56 430.73,94.68 123.78,63.13 219.71,151.01 287.78,263.65 68.07,112.63 102.12,244.45 102.12,395.46 0,178.23 -35.28,329.85 -105.83,454.87 -70.55,125.01 -165.24,220.32 -284.07,285.92 -118.82,65.6 -250.03,98.4 -393.6,98.4l-1199.39 0z"/>
  <path id="_1_0" class="fil3" d="M2209.39 4513.56l842.91 -2298.52c42.09,-113.88 111.4,-199.91 207.95,-258.08 96.55,-58.17 205.47,-87.26 326.78,-87.26 121.3,0 230.21,27.85 326.77,83.55 96.54,55.7 165.86,141.72 207.95,258.08l846.62 2302.23 -672.11 0 -163.38 -501.29 -1102.85 0 -170.8 501.29 -649.83 0zm980.31 -1017.44l783.5 0 -330.48 -1036c-9.9,-27.23 -27.23,-40.84 -51.98,-40.84 -24.76,0 -40.85,13.61 -48.28,40.84l-352.76 1036z"/>
  <path id="_2_1" class="fil3" d="M5985.79 4558.12c-121.3,0 -230.22,-27.84 -326.77,-83.55 -96.54,-55.7 -165.86,-142.96 -207.95,-261.78l-790.93 -2298.53 672.11 0 601.55 2012.61c9.9,29.71 27.23,44.56 51.98,44.56 22.28,0 39.62,-14.85 51.99,-44.56l612.69 -2012.61 657.25 0 -787.21 2298.53c-42.09,116.34 -112.02,202.99 -209.81,259.93 -97.78,56.93 -206.08,85.4 -324.91,85.4z"/>
  <path id="_3_2" class="fil3" d="M7968.7 5326.77c-227.75,0 -399.8,-61.89 -516.14,-185.66 -116.35,-123.78 -174.53,-280.98 -174.53,-471.59 0,-126.26 25.37,-259.93 76.12,-401.04 50.75,-141.11 133.06,-281.59 246.93,-421.46 113.88,-139.87 268.59,-269.22 464.16,-388.04l0 -1024.86 -516.14 0 0 -519.87 1106.55 0 0 2629.01c0,235.17 -56.93,424.55 -170.8,568.13 -113.88,143.58 -285.92,215.37 -516.14,215.37zm-33.42 -534.71c44.56,0 79.83,-18.57 105.82,-55.7 26,-37.13 38.99,-87.88 38.99,-152.25l0 -568.13c-96.54,79.21 -165.24,156.58 -206.08,232.08 -40.84,75.51 -65.6,142.97 -74.27,202.38 -8.66,59.41 -12.99,106.44 -12.99,141.1 0,64.37 14.85,113.88 44.56,148.54 29.71,34.66 64.36,51.98 103.98,51.98z"/>
  <path id="_4_3" class="fil3" d="M8882.15 4513.56l842.91 -2298.52c42.09,-113.88 111.4,-199.91 207.95,-258.08 96.55,-58.17 205.47,-87.26 326.78,-87.26 121.3,0 230.21,27.85 326.77,83.55 96.54,55.7 165.86,141.72 207.95,258.08l846.62 2302.23 -672.11 0 -163.38 -501.29 -1102.85 0 -170.8 501.29 -649.83 0zm980.31 -1017.44l783.5 0 -330.48 -1036c-9.9,-27.23 -27.23,-40.84 -51.98,-40.84 -24.76,0 -40.85,13.61 -48.28,40.84l-352.76 1036z"/>
  <path class="fil2" d="M13821.75 3819.59l511.2 511.12c0,0 180.38,180.41 435.83,180.41l947.18 0 -1262.81 -1262.81 -631.41 571.28z"/>
 </g>
</svg>
